<svg width="31" height="30" viewBox="0 0 31 30" fill="none" xmlns="http://www.w3.org/2000/svg">
<g clip-path="url(#clip0_7_14)">
<path fill-rule="evenodd" clip-rule="evenodd" d="M13.5625 2.5C11.8118 2.50014 10.0864 2.90546 8.53049 3.68212C6.97454 4.45878 5.63307 5.58427 4.618 6.96469C3.60294 8.34511 2.94371 9.94043 2.69532 11.6176C2.44693 13.2947 2.61658 15.005 3.19012 16.6057C3.76366 18.2065 4.72445 19.6513 5.99234 20.8197C7.26023 21.988 8.79844 22.846 10.4787 23.322C12.1589 23.798 13.9324 23.8783 15.6511 23.5561C17.3699 23.234 18.9842 22.5187 20.3592 21.47L25.0764 26.035C25.32 26.2627 25.6463 26.3887 25.985 26.3858C26.3236 26.383 26.6476 26.2515 26.8871 26.0198C27.1266 25.788 27.2624 25.4745 27.2654 25.1467C27.2683 24.819 27.1381 24.5033 26.9028 24.2675L22.1857 19.7025C23.4618 18.1358 24.2564 16.253 24.4785 14.2697C24.7006 12.2863 24.3412 10.2825 23.4414 8.48762C22.5417 6.69271 21.138 5.17919 19.3909 4.12029C17.6438 3.06138 15.6239 2.49987 13.5625 2.5ZM5.16666 13.125C5.16666 10.9701 6.05122 8.90349 7.62574 7.37976C9.20026 5.85602 11.3358 5 13.5625 5C15.7892 5 17.9247 5.85602 19.4992 7.37976C21.0738 8.90349 21.9583 10.9701 21.9583 13.125C21.9583 15.2799 21.0738 17.3465 19.4992 18.8702C17.9247 20.394 15.7892 21.25 13.5625 21.25C11.3358 21.25 9.20026 20.394 7.62574 18.8702C6.05122 17.3465 5.16666 15.2799 5.16666 13.125Z" fill="black"/>
</g>
<defs>
<clipPath id="clip0_7_14">
<rect width="31" height="30" fill="white"/>
</clipPath>
</defs>
</svg>
