<svg width="44" height="44" viewBox="0 0 44 44" fill="none" xmlns="http://www.w3.org/2000/svg">
<circle cx="22" cy="22" r="21.5" fill="white" stroke="black"/>
<g clip-path="url(#clip0_59_2)">
<path fill-rule="evenodd" clip-rule="evenodd" d="M20.5625 9.5C18.8118 9.50014 17.0864 9.90546 15.5305 10.6821C13.9745 11.4588 12.6331 12.5843 11.618 13.9647C10.6029 15.3451 9.94371 16.9404 9.69532 18.6176C9.44693 20.2947 9.61658 22.005 10.1901 23.6057C10.7637 25.2065 11.7245 26.6513 12.9923 27.8197C14.2602 28.988 15.7984 29.846 17.4787 30.322C19.1589 30.798 20.9324 30.8783 22.6511 30.5561C24.3699 30.234 25.9842 29.5187 27.3592 28.47L32.0764 33.035C32.32 33.2627 32.6463 33.3887 32.985 33.3858C33.3236 33.383 33.6476 33.2515 33.8871 33.0198C34.1266 32.788 34.2624 32.4745 34.2654 32.1467C34.2683 31.819 34.1381 31.5033 33.9028 31.2675L29.1857 26.7025C30.4618 25.1358 31.2564 23.253 31.4785 21.2697C31.7006 19.2863 31.3412 17.2825 30.4414 15.4876C29.5417 13.6927 28.138 12.1792 26.3909 11.1203C24.6438 10.0614 22.6239 9.49987 20.5625 9.5ZM12.1667 20.125C12.1667 17.9701 13.0512 15.9035 14.6257 14.3798C16.2003 12.856 18.3358 12 20.5625 12C22.7892 12 24.9247 12.856 26.4992 14.3798C28.0738 15.9035 28.9583 17.9701 28.9583 20.125C28.9583 22.2799 28.0738 24.3465 26.4992 25.8702C24.9247 27.394 22.7892 28.25 20.5625 28.25C18.3358 28.25 16.2003 27.394 14.6257 25.8702C13.0512 24.3465 12.1667 22.2799 12.1667 20.125Z" fill="black"/>
</g>
<defs>
<clipPath id="clip0_59_2">
<rect width="31" height="30" fill="white" transform="translate(7 7)"/>
</clipPath>
</defs>
</svg>
